<svg width="646" height="376" viewBox="0 0 646 376" fill="none" xmlns="http://www.w3.org/2000/svg">
<path d="M16 255C16 190.383 68.3827 138 133 138H542.765C555.057 138 561.203 138 566.372 138.6C607.861 143.413 640.587 176.139 645.4 217.628C646 222.797 646 228.943 646 241.235V241.235C646 252.162 646 257.625 645.467 262.219C641.188 299.099 612.099 328.188 575.219 332.467C570.625 333 565.162 333 554.235 333H94C50.9218 333 16 298.078 16 255V255Z" fill="#F89119"/>
<ellipse cx="380" cy="163.5" rx="233" ry="163.5" fill="#F89119"/>
<ellipse cx="526.5" cy="190" rx="98.5" ry="116" fill="#F89119"/>
<ellipse cx="86.5" cy="280.5" rx="86.5" ry="52.5" fill="#F89119"/>
<ellipse cx="218" cy="302" rx="72" ry="74" fill="black"/>
<ellipse cx="509" cy="302" rx="72" ry="74" fill="black"/>
<path d="M94.7088 164.704C96.0748 165.85 96.7405 167.823 96.6567 170.552C96.5731 173.273 95.7435 176.657 94.2298 180.487C91.2045 188.142 85.4899 197.47 77.7935 206.643C70.0972 215.815 61.9029 223.062 54.8899 227.371C51.381 229.527 48.1924 230.931 45.5267 231.486C42.8539 232.043 40.795 231.73 39.429 230.583C38.0631 229.437 37.3974 227.464 37.4811 224.735C37.5647 222.014 38.3943 218.63 39.908 214.8C42.9333 207.145 48.6479 197.817 56.3443 188.644C64.0406 179.472 72.2349 172.225 79.2479 167.916C82.7568 165.76 85.9454 164.356 88.6111 163.801C91.2839 163.244 93.3428 163.557 94.7088 164.704Z" fill="white" stroke="black"/>
<path d="M230 132C230 74.0101 277.01 27 335 27H367V132H230V132Z" fill="#25D6E1" stroke="black"/>
<path d="M529 132C529 74.0101 481.99 27 424 27H392V132H529V132Z" fill="#25D6E1" stroke="black"/>
</svg>
